<?xml version="1.0" encoding="utf-8"?>
<!-- Generator: Adobe Illustrator 18.1.0, SVG Export Plug-In . SVG Version: 6.00 Build 0)  -->
<svg version="1.1" id="Layer_1" xmlns="http://www.w3.org/2000/svg" xmlns:xlink="http://www.w3.org/1999/xlink" x="0px" y="0px"
	 viewBox="0 0 18 18" enable-background="new 0 0 18 18" xml:space="preserve">
<path fill="#FFFFFF" d="M10.2726564,9l5.999999-6c0.3515625-0.3515625,0.3515625-0.9210937,0-1.2726562
	c-0.3515615-0.3515625-0.921093-0.3515625-1.2726555,0l-6,6l-6-6c-0.3515625-0.3515625-0.9210937-0.3515625-1.2726562,0
	S1.3757813,2.6484375,1.7273438,3l6,6l-6,6c-0.3515625,0.3515625-0.3515625,0.9210939,0,1.2726555
	c0.1757812,0.1757812,0.4060547,0.2636719,0.636328,0.2636719c0.2302735,0,0.460547-0.0878906,0.6363282-0.2636719l6-5.999999
	l6,5.999999c0.1757812,0.1757812,0.4060545,0.2636719,0.6363277,0.2636719c0.2302742,0,0.4605465-0.0878906,0.6363277-0.2636719
	c0.3515625-0.3515615,0.3515625-0.921093,0-1.2726555L10.2726564,9z"/>
</svg>
