<?xml version="1.0" encoding="utf-8"?>
<!-- Generator: Adobe Illustrator 18.1.0, SVG Export Plug-In . SVG Version: 6.00 Build 0)  -->
<svg version="1.1" id="Layer_1" xmlns:sketch="http://www.bohemiancoding.com/sketch/ns"
	 xmlns="http://www.w3.org/2000/svg" xmlns:xlink="http://www.w3.org/1999/xlink" x="0px" y="0px" viewBox="-294 386 24 21"
	 enable-background="new -294 386 24 21" xml:space="preserve">
<path d="M-271.75,391h-7.5c-0.4125,0-0.75-0.3375-0.75-0.75v-1.5c0-0.4125,0.3375-0.75,0.75-0.75h7.5
	c0.4125,0,0.75,0.3375,0.75,0.75v1.5C-271,390.6625-271.3375,391-271.75,391z"/>
<path d="M-271.75,398h-7.5c-0.4125,0-0.75-0.3375-0.75-0.75v-1.5c0-0.4125,0.3375-0.75,0.75-0.75h7.5
	c0.4125,0,0.75,0.3375,0.75,0.75v1.5C-271,397.6625-271.3375,398-271.75,398z"/>
<path d="M-271.75,405h-7.5c-0.4125,0-0.75-0.3375-0.75-0.75v-1.5c0-0.4125,0.3375-0.75,0.75-0.75h7.5
	c0.4125,0,0.75,0.3375,0.75,0.75v1.5C-271,404.6625-271.3375,405-271.75,405z"/>
<path d="M-284.75,391h-7.5c-0.4125,0-0.75-0.3375-0.75-0.75v-1.5c0-0.4125,0.3375-0.75,0.75-0.75h7.5
	c0.4125,0,0.75,0.3375,0.75,0.75v1.5C-284,390.6625-284.3375,391-284.75,391z"/>
<path d="M-284.75,398h-7.5c-0.4125,0-0.75-0.3375-0.75-0.75v-1.5c0-0.4125,0.3375-0.75,0.75-0.75h7.5
	c0.4125,0,0.75,0.3375,0.75,0.75v1.5C-284,397.6625-284.3375,398-284.75,398z"/>
<path d="M-284.75,405h-7.5c-0.4125,0-0.75-0.3375-0.75-0.75v-1.5c0-0.4125,0.3375-0.75,0.75-0.75h7.5
	c0.4125,0,0.75,0.3375,0.75,0.75v1.5C-284,404.6625-284.3375,405-284.75,405z"/>
</svg>
