<?xml version="1.0" encoding="utf-8"?>
<!-- Generator: Adobe Illustrator 19.1.0, SVG Export Plug-In . SVG Version: 6.00 Build 0)  -->
<svg version="1.1" id="Layer_1" xmlns="http://www.w3.org/2000/svg" xmlns:xlink="http://www.w3.org/1999/xlink" x="0px" y="0px"
	 viewBox="-1018 1016 30 18" style="enable-background:new -1018 1016 30 18;" xml:space="preserve">
<path d="M-988.2,1024.2c0,0-0.3-0.1-1.3-0.2c-1.2-0.1-1.5-0.5-1.9-1.1h0c0-0.1-0.1-0.3-0.2-0.4l0,0c-0.1-0.7-0.2-1.2,0.6-2.1
	c0.6-0.7,0.8-1,0.8-1c-0.1-0.4-0.5-0.7-0.5-0.7s-0.3-0.3-0.7-0.5c0,0-0.3,0.1-1,0.8c-0.9,0.7-1.4,0.7-2.1,0.6l0,0
	c-0.1-0.1-0.3-0.1-0.4-0.2v0c-0.5-0.4-1-0.7-1.1-1.9c-0.1-0.9-0.2-1.3-0.2-1.3c-0.4-0.2-0.8-0.2-0.8-0.2s-0.5,0-0.8,0.2
	c0,0-0.1,0.3-0.2,1.3c-0.1,1.2-0.5,1.5-1.1,1.9v0c-0.1,0-0.3,0.1-0.4,0.2l0,0c-0.7,0.1-1.2,0.2-2.1-0.6c-0.7-0.6-1-0.8-1-0.8
	c-0.4,0.1-0.7,0.5-0.7,0.5s-0.3,0.3-0.5,0.7c0,0,0.1,0.3,0.8,1c0.7,0.9,0.7,1.4,0.6,2.1l0,0c-0.1,0.1-0.1,0.3-0.2,0.4h0
	c-0.4,0.5-0.7,1-1.9,1.1c-0.9,0.1-1.3,0.2-1.3,0.2c-0.2,0.4-0.2,0.8-0.2,0.8s0,0.5,0.2,0.8c0,0,0.3,0.1,1.3,0.2
	c1.2,0.1,1.5,0.5,1.9,1.1h0c0,0.1,0.1,0.3,0.2,0.4l0,0c0.1,0.7,0.2,1.2-0.6,2.1c-0.6,0.7-0.8,1-0.8,1c0.1,0.4,0.5,0.7,0.5,0.7
	s0.3,0.3,0.7,0.5c0,0,0.3-0.1,1-0.8c0.9-0.7,1.4-0.7,2.1-0.6l0,0c0.1,0.1,0.3,0.1,0.4,0.2v0c0.5,0.4,1,0.7,1.1,1.9
	c0.1,0.9,0.2,1.3,0.2,1.3c0.4,0.2,0.8,0.2,0.8,0.2s0.5,0,0.8-0.2c0,0,0.1-0.3,0.2-1.3c0.1-1.2,0.5-1.5,1.1-1.9v0
	c0.1,0,0.3-0.1,0.4-0.2l0,0c0.7-0.1,1.2-0.2,2.1,0.6c0.7,0.6,1,0.8,1,0.8c0.4-0.1,0.7-0.5,0.7-0.5s0.3-0.3,0.5-0.7
	c0,0-0.1-0.3-0.8-1c-0.7-0.9-0.7-1.4-0.6-2.1l0,0c0.1-0.1,0.1-0.3,0.2-0.4h0c0.4-0.5,0.7-1,1.9-1.1c0.9-0.1,1.3-0.2,1.3-0.2
	c0.2-0.4,0.2-0.8,0.2-0.8S-988,1024.5-988.2,1024.2z M-997,1029.2c-2.3,0-4.2-1.9-4.2-4.2c0-2.3,1.9-4.2,4.2-4.2s4.2,1.9,4.2,4.2
	C-992.8,1027.3-994.7,1029.2-997,1029.2z"/>
<polygon points="-1013,1028 -1009,1024 -1017,1024 "/>
</svg>
